<svg version="1.1" xmlns="http://www.w3.org/2000/svg" xmlns:xlink="http://www.w3.org/1999/xlink" x="0px" y="0px" viewBox="0 0 256 256" enable-background="new 0 0 256 256" xml:space="preserve"><g><g><g><path fill="#ffffff" d="M106.8,11.4c-16.2,2.9-36.1,11.5-49.2,21.3c-24.2,18.1-41.2,45.5-46.3,74.8c-1.8,10.8-1.8,29.8,0.1,40.7c6.2,36.1,29.6,67.9,62.4,84.8c39.6,20.5,88.4,16.6,124.1-9.9c52.6-39,63.7-113,24.9-165.4c-17.9-24.4-45.1-41.2-74.7-46.3C137.6,9.5,117,9.6,106.8,11.4z M145,25.6c22.4,3.9,40.9,13.6,57,30.1c47,48,36.7,126.4-21.1,161.3c-40,24.1-91.8,17.9-125.2-15c-16.5-16.2-26.2-34.7-30.1-57c-3.6-21,0-44.8,9.6-63.8C55.5,40.9,100.9,18,145,25.6z"/><path fill="#ffffff" d="M123.1,58.9l-2.3,1.8l-0.3,56.4l-0.2,56.4l-15.9-15.8C89.9,143.3,88.4,142,85.2,142c-2.6,0-4,0.7-5.4,2.5c-4.1,5.2-3.7,5.7,21.4,30.8c21.5,21.5,23.6,23.4,26.6,23.4c3,0,5.1-1.9,26.6-23.4c25.1-25.1,25.5-25.6,21.4-30.8c-1.4-1.8-2.7-2.5-5.4-2.5c-3.1,0-4.6,1.2-19.3,15.8l-15.9,15.8l-0.2-56.4L135,60.7l-2.3-1.8c-1.2-0.9-3.4-1.8-4.8-1.8S124.3,57.9,123.1,58.9z"/></g></g></g></svg>