<?xml version="1.0" encoding="utf-8"?>
<svg fill="#ffffff" width="800px" height="800px" viewBox="0 0 1000 1000" version="1.1" xmlns="http://www.w3.org/2000/svg" xmlns:xlink="http://www.w3.org/1999/xlink"  enable-background="new 0 0 1000 1000" xml:space="preserve"><g><g transform="translate(0.000000,511.000000) scale(0.100000,-0.100000)"><path d="M3009.4,2885.4C1934.9,2272.9,845.2,1650.2,584.9,1502.2l-472.1-270.5l-7.7-2506.1L100-3780.7h4900h4900l-5.1,2506.2l-7.7,2508.7l-421.1,237.3c-232.2,132.7-1324.5,755.4-2432.1,1385.8c-1105,630.4-2023.8,1145.9-2041.7,1143.3C4977,4000.6,4083.8,3497.9,3009.4,2885.4z M7108,2375c1128-640.6,2051.9-1174,2051.9-1184.2c0-23-4126.7-2993.6-4159.9-2993.6S840.1,1167.8,840.1,1190.8c2.6,33.2,4147.1,2378.5,4182.9,2365.8C5040.8,3548.9,5980,3018.1,7108,2375z"/></g></g></svg>