<svg width="56" height="56" viewBox="0 0 56 56" fill="none" xmlns="http://www.w3.org/2000/svg">
<path d="M13.8564 9.30486C13.8564 6.87544 15.9243 4.90601 18.4752 4.90601H34.21C35.4688 4.90601 36.6731 5.39535 37.5442 6.26082L47.2128 15.8666C48.0371 16.6856 48.4974 17.7762 48.4974 18.9107V40.0969C48.4974 42.5263 46.4294 44.4957 43.8786 44.4957H18.4752C15.9243 44.4957 13.8564 42.5263 13.8564 40.0969V9.30486Z" fill="#51CFFF"/>
<path d="M6.92821 15.9033C6.92821 13.4738 8.99611 11.5044 11.547 11.5044H27.2818C28.5406 11.5044 29.7449 11.9937 30.6161 12.8592L40.2847 22.465C41.109 23.284 41.5692 24.3746 41.5692 25.5091V46.6953C41.5692 49.1247 39.5013 51.0941 36.9504 51.0941H11.547C8.99611 51.0941 6.92821 49.1247 6.92821 46.6952V15.9033Z" fill="#4255FF"/>
<rect x="11.5471" y="29.0997" width="18.4752" height="4.39886" rx="2.19943" fill="white"/>
<rect x="11.5471" y="37.8975" width="13.8564" height="4.39886" rx="2.19943" fill="white"/>
</svg>
