<svg width="56" height="56" viewBox="0 0 56 56" fill="none" xmlns="http://www.w3.org/2000/svg">
<path d="M6.92876 18.7616C6.92876 16.2105 8.99683 14.1425 11.5479 14.1425H36.9533C39.5044 14.1425 41.5725 16.2105 41.5725 18.7616V44.167C41.5725 46.7181 39.5044 48.7862 36.9533 48.7862H11.5479C8.99683 48.7862 6.92876 46.7181 6.92876 44.167V18.7616Z" fill="#423ED8"/>
<path d="M11.5479 14.1425C11.5479 11.5914 13.616 9.52332 16.1671 9.52332H41.5725C44.1236 9.52332 46.1917 11.5914 46.1917 14.1425V39.5479C46.1917 42.099 44.1236 44.1671 41.5725 44.1671H16.1671C13.616 44.1671 11.5479 42.099 11.5479 39.5479V14.1425Z" fill="#51CFFF"/>
<path d="M48.001 14.843L44.1245 16.3277C44.0288 16.3622 43.9419 16.4174 43.8699 16.4892C43.798 16.5611 43.7427 16.6478 43.7081 16.7434L42.2011 20.6035C42.1476 20.7412 42.0537 20.8596 41.9316 20.9431C41.8095 21.0266 41.665 21.0712 41.517 21.0712C41.369 21.0712 41.2245 21.0266 41.1024 20.9431C40.9803 20.8596 40.8864 20.7412 40.8329 20.6035L39.3458 16.7335C39.31 16.6374 39.2545 16.5499 39.1828 16.4766C39.1111 16.4032 39.0247 16.3458 38.9294 16.3079L35.1123 14.8034C34.9743 14.75 34.8558 14.6562 34.7721 14.5344C34.6885 14.4125 34.6438 14.2682 34.6438 14.1205C34.6438 13.9727 34.6885 13.8285 34.7721 13.7066C34.8558 13.5847 34.9743 13.4909 35.1123 13.4375L38.9888 11.9628C39.0854 11.9249 39.1731 11.8676 39.2465 11.7944C39.3199 11.7212 39.3773 11.6336 39.4152 11.5372L40.9122 7.67704C40.9679 7.54013 41.0632 7.42291 41.1859 7.34037C41.3087 7.25784 41.4533 7.21375 41.6013 7.21375C41.7493 7.21375 41.8939 7.25784 42.0167 7.34037C42.1394 7.42291 42.2347 7.54013 42.2903 7.67704L43.7676 11.557C43.8056 11.6522 43.8631 11.7384 43.9366 11.81C44.01 11.8816 44.0977 11.937 44.1939 11.9727L48.0605 13.4771C48.1965 13.5362 48.3113 13.6351 48.3899 13.7606C48.4684 13.8862 48.507 14.0325 48.5006 14.1804C48.4941 14.3283 48.4429 14.4708 48.3538 14.5891C48.2646 14.7074 48.1416 14.7959 48.001 14.843V14.843Z" fill="#E372FF"/>
<path d="M39.0128 22.5763L37.0745 23.3187C37.0267 23.336 36.9832 23.3635 36.9473 23.3995C36.9113 23.4354 36.8837 23.4788 36.8663 23.5265L36.1128 25.4566C36.0861 25.5255 36.0391 25.5846 35.9781 25.6264C35.9171 25.6681 35.8448 25.6905 35.7708 25.6905C35.6968 25.6905 35.6246 25.6681 35.5635 25.6264C35.5025 25.5846 35.4555 25.5255 35.4288 25.4566L34.6852 23.5216C34.6673 23.4735 34.6396 23.4298 34.6037 23.3931C34.5678 23.3565 34.5247 23.3277 34.477 23.3088L32.5684 22.5566C32.4995 22.5299 32.4402 22.483 32.3984 22.422C32.3565 22.3611 32.3342 22.2889 32.3342 22.2151C32.3342 22.1412 32.3565 22.0691 32.3984 22.0081C32.4402 21.9472 32.4995 21.9003 32.5684 21.8736L34.5067 21.1362C34.555 21.1173 34.5989 21.0887 34.6355 21.052C34.6722 21.0154 34.7009 20.9716 34.7199 20.9234L35.4684 18.9934C35.4962 18.9249 35.5439 18.8663 35.6052 18.825C35.6666 18.7838 35.7389 18.7617 35.8129 18.7617C35.8869 18.7617 35.9592 18.7838 36.0206 18.825C36.082 18.8663 36.1296 18.9249 36.1575 18.9934L36.8961 20.9333C36.9151 20.9809 36.9439 21.024 36.9806 21.0598C37.0173 21.0956 37.0611 21.1233 37.1092 21.1412L39.0425 21.8934C39.1105 21.923 39.1679 21.9724 39.2072 22.0352C39.2465 22.0979 39.2658 22.1711 39.2626 22.2451C39.2593 22.319 39.2338 22.3903 39.1892 22.4494C39.1446 22.5085 39.0831 22.5528 39.0128 22.5763V22.5763Z" fill="#E372FF"/>
<path d="M18.4767 23.3809C18.4767 22.1053 19.5107 21.0713 20.7863 21.0713H27.715C28.9905 21.0713 30.0246 22.1053 30.0246 23.3809C30.0246 24.6564 28.9905 25.6905 27.715 25.6905H20.7863C19.5107 25.6905 18.4767 24.6564 18.4767 23.3809Z" fill="white"/>
<path d="M18.4767 32.6192C18.4767 31.3436 19.5107 30.3096 20.7863 30.3096H36.9533C38.2289 30.3096 39.2629 31.3436 39.2629 32.6192V32.6192C39.2629 33.8947 38.2289 34.9287 36.9533 34.9287H20.7863C19.5107 34.9287 18.4767 33.8947 18.4767 32.6192V32.6192Z" fill="white"/>
</svg>
