<svg version="1.1" xmlns="http://www.w3.org/2000/svg" xmlns:xlink="http://www.w3.org/1999/xlink" x="0px" y="0px" viewBox="0 0 256 256" enable-background="new 0 0 256 256" xml:space="preserve"><g><g><g><path fill="#000000" d="M14.9,103.5c-2.2,0.9-4.4,3.6-4.7,5.8c-0.2,0.9-0.3,10-0.2,20.3c0.2,17.8,0.2,18.6,1.3,20c0.6,0.8,1.7,2,2.5,2.5l1.4,1.1h112.8h112.8l1.4-1.1c0.8-0.6,2-1.7,2.5-2.5c1.1-1.4,1.1-2.1,1.1-21.4c0-19.4-0.1-20-1.1-21.4c-0.6-0.8-1.7-2-2.5-2.5l-1.4-1.1l-112.2-0.1C36.3,102.8,16.3,102.9,14.9,103.5z"/></g></g></g></svg>