<svg width="64" height="64" viewBox="0 0 64 64" fill="none" xmlns="http://www.w3.org/2000/svg">
<path d="M37.8198 12.4093H6.5459V43.6833H37.8198V12.4093Z" fill="#FF983A"/>
<path d="M11.1064 46.1175C11.1064 48.0109 12.7027 49.5471 14.6692 49.5471H34.2568C36.2234 49.5471 37.8196 48.0109 37.8196 46.1175V42.3802H11.1064V46.1175Z" fill="#FF983A"/>
<path d="M37.8194 10.2892C37.8194 8.22132 36.2627 6.54544 34.3449 6.54544H15.2324C13.3145 6.54544 11.7578 8.22132 11.7578 10.2892V14.3639H37.8194V10.2892Z" fill="#FF983A"/>
<path d="M6.5459 46.1175C6.5459 48.0109 8.1032 49.5471 10.0218 49.5471H29.1317C31.0502 49.5471 32.6075 48.0109 32.6075 46.1175V42.3802H6.5459V46.1175Z" fill="#FF983A"/>
<path d="M32.6075 10.2892C32.6075 8.22132 31.0508 6.54544 29.133 6.54544H10.0205C8.10262 6.54544 6.5459 8.22132 6.5459 10.2892V14.3639H32.6075V10.2892Z" fill="#FF983A"/>
<path d="M35.8647 11.7578H8.5V43.6833H35.8647V11.7578Z" fill="#FFCD1F"/>
<path d="M20.3066 46.5761C20.3066 45.5398 21.1467 44.6997 22.1831 44.6997C23.2194 44.6997 24.0595 45.5398 24.0595 46.5761C24.0595 47.6124 23.2194 48.4525 22.1831 48.4525C21.1467 48.4525 20.3066 47.6124 20.3066 46.5761Z" fill="white"/>
<path d="M57.5848 22.118H32.7275V51.799H57.5848V22.118Z" fill="#A8B1FF"/>
<path d="M32.7275 53.9306C32.7275 55.8254 34.2123 57.3628 36.0415 57.3628H54.2615C56.0907 57.3628 57.5755 55.8254 57.5755 53.9306V50.1906H32.7275V53.9306Z" fill="#4255FF"/>
<path d="M57.5848 19.9874C57.5848 18.0905 56.1 16.5531 54.2708 16.5531H36.0415C34.2123 16.5531 32.7275 18.0905 32.7275 19.9874V23.7253H57.5848V19.9874Z" fill="#4255FF"/>
<path fill-rule="evenodd" clip-rule="evenodd" d="M41.3232 20.1389C41.3232 19.4731 41.863 18.9333 42.5289 18.9333H47.7829C48.4488 18.9333 48.9886 19.4731 48.9886 20.1389C48.9886 20.8048 48.4488 21.3446 47.7829 21.3446H42.5289C41.863 21.3446 41.3232 20.8048 41.3232 20.1389Z" fill="white"/>
</svg>
