<svg version="1.1" id="Layer_1" xmlns="http://www.w3.org/2000/svg" xmlns:xlink="http://www.w3.org/1999/xlink" x="0px" y="0px" viewBox="0 0 512 512" style="enable-background:new 0 0 512 512;" xml:space="preserve"><path fill="orange" d="M256,31C131.7,31,31,131.8,31,256c0,124.3,100.7,225,225,225s225-100.7,225-225C481,131.8,380.3,31,256,31z M256,437.5 c-100.3,0-181.5-81.1-181.5-181.5c0-100.2,81.2-181.5,181.5-181.5c100.2,0,181.5,81.2,181.5,181.5 C437.5,356.3,356.3,437.5,256,437.5z M353.3,205.9c0,60.8-65.7,61.8-65.7,84.3v5.7c0,6-4.9,10.9-10.9,10.9h-41.4 c-6,0-10.9-4.9-10.9-10.9v-7.9c0-32.4,24.6-45.4,43.2-55.8c15.9-8.9,25.7-15,25.7-26.8c0-15.6-20-26-36.1-26 c-21,0-30.8,10-44.4,27.2c-3.7,4.6-10.4,5.5-15.1,1.9l-25.2-19.1c-4.6-3.5-5.7-10-2.4-14.8c21.4-31.5,48.7-49.2,91.2-49.2 C305.8,125.4,353.3,160.1,353.3,205.9z M294.1,357.6c0,21-17.1,38.1-38.1,38.1s-38.1-17.1-38.1-38.1c0-21,17.1-38.1,38.1-38.1 S294.1,336.6,294.1,357.6z"/></svg>
