<svg version="1.1" xmlns="http://www.w3.org/2000/svg" xmlns:xlink="http://www.w3.org/1999/xlink" x="0px" y="0px" viewBox="0 0 256 256" enable-background="new 0 0 256 256" xml:space="preserve"><g><g><g><path fill="#ffffff" d="M89,23.7v13.7H59.7c-28.5,0-29.3,0.4-29.3,9.8v9.8H128h97.5v-9.8c0-9.4-0.8-9.8-27.3-9.8h-27.3V23.7V10h-41H89V23.7z M159.2,29.5c0,7-2.7,7.8-29.3,7.8s-29.3-0.8-29.3-7.8c0-7,2.7-7.8,29.3-7.8S159.2,22.5,159.2,29.5z"/><path fill="#ffffff" d="M39.1,155.1l1.2,90.9H128h87.8l1.2-90.9l0.8-90.5H128H38.3L39.1,155.1z M77.3,156.3c0,45.6-1.6,72.2-3.9,72.2c-2.3,0-3.9-26.5-3.9-72.2c0-45.6,1.6-72.2,3.9-72.2C75.7,84.1,77.3,110.6,77.3,156.3z M104.6,156.3c0,45.6-1.6,72.2-3.9,72.2c-2.3,0-3.9-26.5-3.9-72.2c0-45.6,1.6-72.2,3.9-72.2C103,84.1,104.6,110.6,104.6,156.3z M131.9,156.3c0,45.6-1.6,72.2-3.9,72.2s-3.9-26.5-3.9-72.2c0-45.6,1.6-72.2,3.9-72.2S131.9,110.6,131.9,156.3z M159.2,156.3c0,45.6-1.6,72.2-3.9,72.2c-2.3,0-3.9-26.5-3.9-72.2c0-45.6,1.6-72.2,3.9-72.2C157.6,84.1,159.2,110.6,159.2,156.3z M186.5,156.3c0,45.6-1.6,72.2-3.9,72.2c-2.3,0-3.9-26.5-3.9-72.2c0-45.6,1.6-72.2,3.9-72.2S186.5,110.6,186.5,156.3z"/></g></g></g></svg>